# xmcd
#
# Track frame offsets:
#	150
#	22577
#	38802
#	54954
#	72710
#	91359
#	108296
#	128297
#	143206
#	163837
#	181963
#	199661
#	219112
#
# Disc length: 3133 seconds
#
# Revision: 1
# Processed by: cddbd v1.5.1PL2 Copyright (c) Steve Scherf et al.
# Submitted via: dBpowerAMP V4.0
#
DISCID=a60c3b0d
DTITLE=Matt Poss and the Wild Bunch - Matt Poss and the Wild Bunch
DYEAR=2005
DGENRE=Country
TTITLE0=Night Stalker (Psychobilly Mochine)
TTITLE1=The Way
TTITLE2=Better Him Than Me
TTITLE3=Your Cowboy Rides Away
TTITLE4=Good Country Love
TTITLE5=The Prayer
TTITLE6=Down the Road
TTITLE7=Adi
TTITLE8=Your Old Man
TTITLE9=American Life
TTITLE10=Just Right For Drinking
TTITLE11=The Last Ones
TTITLE12=Truck Driving Man (Featuring B.L.T.)
EXTD=Made a few corrections
EXTT0=
EXTT1=
EXTT2=
EXTT3=
EXTT4=
EXTT5=
EXTT6=
EXTT7=
EXTT8=
EXTT9=
EXTT10=
EXTT11=
EXTT12=
PLAYORDER=
